<svg version="1.1" xmlns="http://www.w3.org/2000/svg" style="display: block;" viewBox="0 0 2048 2048" width="1024" height="1024" preserveAspectRatio="none">
<path transform="translate(0,0)" fill="rgb(0,0,0)" d="M 1697.74 814.5 C 1717.76 813.844 1737.26 814.682 1757.34 814.099 C 1721.37 850.693 1683.26 886.142 1646.14 921.597 L 1498.45 1063.55 L 1093.03 1456.38 C 1013.86 1532.07 935.063 1608.16 856.655 1684.64 L 824.753 1715.44 C 831.406 1704.22 836.877 1691.27 842.427 1679.35 L 866.631 1627.69 L 954.632 1441.67 C 974.799 1398.81 993.353 1351.74 1020.39 1312.77 C 1028.09 1301.67 1035.72 1290.45 1043.39 1279.34 L 1115.57 1174.58 L 1362.74 816.701 C 1393.61 814.599 1441.6 815.931 1473.75 815.882 C 1548.42 816.105 1623.08 815.645 1697.74 814.5 z"/>
<path transform="translate(0,0)" fill="rgb(1,127,251)" d="M 882.014 633.882 L 1893.16 633.294 C 1890.12 638.703 1887.04 644.089 1883.92 649.452 C 1823.01 650.284 1762.12 652.054 1701.28 654.762 C 1643.79 656.947 1586.23 659.536 1528.75 661.787 C 1511.82 662.45 1490.79 660.516 1474.37 663.03 C 1452.65 695.36 1427.78 726.387 1405.14 758.337 C 1391.61 777.426 1376.73 794.353 1364.01 814.91 C 1343.47 815.914 1320.2 815.584 1299.5 815.714 L 1191.51 816.209 C 1176.73 816.242 1135.92 815.126 1123.7 816.909 C 1114.85 817.364 1105.99 817.314 1097.12 817.262 C 1036.92 816.912 975.745 819.649 915.636 818.038 C 896.712 817.185 875.592 817.59 856.504 817.373 C 841.53 817.204 820.575 816.641 806.219 818.109 C 796.326 833.942 779.418 857.569 767.569 871.707 C 765.643 876.996 759.875 883.832 756.259 888.345 C 753.082 882.404 750.764 876.371 748.224 870.138 C 751.175 865.072 753.213 861.932 756.612 857.148 C 760.055 847.844 780.963 814.233 787.017 803.109 C 817.759 746.617 851.663 690.538 882.014 633.882 z"/>
<path transform="translate(0,0)" fill="rgb(0,86,168)" d="M 756.612 857.148 C 754.684 865.752 750.845 866.771 752.097 876.723 L 753.429 878.312 C 761.193 878.869 762.758 875.302 767.569 871.707 C 765.643 876.996 759.875 883.832 756.259 888.345 C 753.082 882.404 750.764 876.371 748.224 870.138 C 751.175 865.072 753.213 861.932 756.612 857.148 z"/>
<path transform="translate(0,0)" fill="rgb(0,86,168)" d="M 915.636 818.038 C 975.745 819.649 1036.92 816.912 1097.12 817.262 C 1105.99 817.314 1114.85 817.364 1123.7 816.909 C 1077.45 885.29 1028.85 951.95 982.615 1020.68 C 994.24 1021.05 1005.87 1021.3 1017.5 1021.43 C 1002.09 1041.39 984.649 1059.76 969.199 1079.74 C 893.885 1177.1 815.615 1278.68 772.456 1395.09 C 765.68 1413.36 756.195 1439.52 757.93 1458.68 L 675.941 1324.13 C 665.374 1306.47 649.876 1282 640.806 1264.22 C 659.851 1229.09 687.75 1186.4 709.149 1151.47 L 833.183 949.56 L 884.669 866.067 C 891.65 854.643 907.763 826.74 915.636 818.038 z"/>
<path transform="translate(0,0)" fill="rgb(1,127,251)" d="M 284.702 765.057 C 295.044 765.787 307.099 765.135 317.631 765.082 L 377.117 765.04 L 573.224 765.02 L 633.264 765.097 C 643.059 765.126 657.031 764.499 666.37 765.998 C 671.499 772.222 679.608 787.949 683.978 795.604 C 695.415 815.423 706.716 835.32 717.879 855.294 C 734.899 885.619 755.242 917.468 771.057 948.063 C 765.808 958.382 753.6 977.193 747.132 987.669 C 723.356 1026.18 698.874 1063.57 675.729 1102.58 C 656.902 1132.33 632.937 1170.14 615.202 1200.24 C 608.04 1192.71 597.617 1172.21 591.066 1162.28 C 581.018 1147.03 570.812 1131.16 561.183 1115.65 L 480.482 986.866 C 421.318 890.432 386.873 822.258 284.702 765.057 z"/>
</svg>